<?xml version="1.0" encoding="UTF-8"?>
<!DOCTYPE score-partwise PUBLIC "-//Recordare//DTD MusicXML 3.0 Partwise//EN" "http://www.musicxml.org/dtds/partwise.dtd">
<score-partwise>
  <work>
    <work-title>Star Wars</work-title>
    </work>
  <identification>
    <encoding>
      <software>MuseScore 2.1.0</software>
      <encoding-date>2018-01-18</encoding-date>
      <supports element="accidental" type="yes"/>
      <supports element="beam" type="yes"/>
      <supports element="print" attribute="new-page" type="yes" value="yes"/>
      <supports element="print" attribute="new-system" type="yes" value="yes"/>
      <supports element="stem" type="yes"/>
      </encoding>
    <source>http://musescore.com/user/13134961/scores/4896053</source>
    </identification>
  <defaults>
    <scaling>
      <millimeters>7.05556</millimeters>
      <tenths>40</tenths>
      </scaling>
    <page-layout>
      <page-height>1683.36</page-height>
      <page-width>1190.88</page-width>
      <page-margins type="even">
        <left-margin>56.6929</left-margin>
        <right-margin>56.6929</right-margin>
        <top-margin>56.6929</top-margin>
        <bottom-margin>113.386</bottom-margin>
        </page-margins>
      <page-margins type="odd">
        <left-margin>56.6929</left-margin>
        <right-margin>56.6929</right-margin>
        <top-margin>56.6929</top-margin>
        <bottom-margin>113.386</bottom-margin>
        </page-margins>
      </page-layout>
    <word-font font-family="FreeSerif" font-size="10"/>
    <lyric-font font-family="FreeSerif" font-size="11"/>
    </defaults>
  <credit page="1">
    <credit-words default-x="595.44" default-y="1626.67" justify="center" valign="top" font-size="24">Star Wars</credit-words>
    </credit>
  <credit page="1">
    <credit-words default-x="595.44" default-y="1569.97" justify="center" valign="top" font-size="14">(Main Theme)</credit-words>
    </credit>
  <part-list>
    <score-part id="P1">
      <part-name>Klavier</part-name>
      <part-abbreviation>Klav.</part-abbreviation>
      <score-instrument id="P1-I1">
        <instrument-name>Klavier</instrument-name>
        </score-instrument>
      <midi-device id="P1-I1" port="1"></midi-device>
      <midi-instrument id="P1-I1">
        <midi-channel>1</midi-channel>
        <midi-program>1</midi-program>
        <volume>78.7402</volume>
        <pan>0</pan>
        </midi-instrument>
      </score-part>
    </part-list>
  <part id="P1">
    <measure number="0" implicit="yes" width="209.49">
      <print>
        <system-layout>
          <system-margins>
            <left-margin>0.00</left-margin>
            <right-margin>0.00</right-margin>
            </system-margins>
          <top-system-distance>170.00</top-system-distance>
          </system-layout>
        </print>
      <attributes>
        <divisions>6</divisions>
        <key>
          <fifths>0</fifths>
          </key>
        <time>
          <beats>4</beats>
          <beat-type>4</beat-type>
          </time>
        <clef>
          <sign>G</sign>
          <line>2</line>
          </clef>
        </attributes>
      <direction placement="below">
        <direction-type>
          <words>D</words>
          </direction-type>
        </direction>
      <direction placement="below">
        <direction-type>
          <words>D</words>
          </direction-type>
        </direction>
      <note default-x="75.17" default-y="-45.00">
        <pitch>
          <step>D</step>
          <octave>4</octave>
          </pitch>
        <duration>3</duration>
        <voice>1</voice>
        <type>eighth</type>
        <stem>up</stem>
        <beam number="1">begin</beam>
        </note>
      <direction placement="below">
        <direction-type>
          <words>D</words>
          </direction-type>
        </direction>
      <direction placement="below">
        <direction-type>
          <words>D</words>
          </direction-type>
        </direction>
      <note default-x="117.88" default-y="-45.00">
        <pitch>
          <step>D</step>
          <octave>4</octave>
          </pitch>
        <duration>3</duration>
        <voice>1</voice>
        <type>eighth</type>
        <stem>up</stem>
        <beam number="1">continue</beam>
        </note>
      <direction placement="below">
        <direction-type>
          <words>D</words>
          </direction-type>
        </direction>
      <direction placement="below">
        <direction-type>
          <words>D</words>
          </direction-type>
        </direction>
      <note default-x="160.59" default-y="-45.00">
        <pitch>
          <step>D</step>
          <octave>4</octave>
          </pitch>
        <duration>3</duration>
        <voice>1</voice>
        <type>eighth</type>
        <stem>up</stem>
        <beam number="1">end</beam>
        </note>
      <barline location="right">
        <bar-style>light-light</bar-style>
        </barline>
      </measure>
    <measure number="1" width="258.24">
      <direction placement="below">
        <direction-type>
          <words>G</words>
          </direction-type>
        </direction>
      <direction placement="below">
        <direction-type>
          <words>G</words>
          </direction-type>
        </direction>
      <note default-x="12.00" default-y="-30.00">
        <pitch>
          <step>G</step>
          <octave>4</octave>
          </pitch>
        <duration>12</duration>
        <voice>1</voice>
        <type>half</type>
        <stem>up</stem>
        </note>
      <direction placement="below">
        <direction-type>
          <words>D</words>
          </direction-type>
        </direction>
      <direction placement="below">
        <direction-type>
          <words>D</words>
          </direction-type>
        </direction>
      <note default-x="134.14" default-y="-10.00">
        <pitch>
          <step>D</step>
          <octave>5</octave>
          </pitch>
        <duration>12</duration>
        <voice>1</voice>
        <type>half</type>
        <stem>down</stem>
        </note>
      </measure>
    <measure number="2" width="304.88">
      <direction placement="above">
        <direction-type>
          <metronome parentheses="no">
            <beat-unit>quarter</beat-unit>
            <per-minute>120</per-minute>
            </metronome>
          </direction-type>
        <sound tempo="120"/>
        </direction>
      <direction placement="below">
        <direction-type>
          <words>C</words>
          </direction-type>
        </direction>
      <direction placement="below">
        <direction-type>
          <words>C</words>
          </direction-type>
        </direction>
      <note default-x="12.00" default-y="-15.00">
        <pitch>
          <step>C</step>
          <octave>5</octave>
          </pitch>
        <duration>2</duration>
        <voice>1</voice>
        <type>eighth</type>
        <time-modification>
          <actual-notes>3</actual-notes>
          <normal-notes>2</normal-notes>
          </time-modification>
        <stem>down</stem>
        <beam number="1">begin</beam>
        <notations>
          <tuplet type="start" bracket="no"/>
          </notations>
        </note>
      <direction placement="below">
        <direction-type>
          <words>H</words>
          </direction-type>
        </direction>
      <direction placement="below">
        <direction-type>
          <words>H</words>
          </direction-type>
        </direction>
      <note default-x="50.83" default-y="-20.00">
        <pitch>
          <step>B</step>
          <octave>4</octave>
          </pitch>
        <duration>2</duration>
        <voice>1</voice>
        <type>eighth</type>
        <time-modification>
          <actual-notes>3</actual-notes>
          <normal-notes>2</normal-notes>
          </time-modification>
        <stem>down</stem>
        <beam number="1">continue</beam>
        </note>
      <direction placement="below">
        <direction-type>
          <words>A</words>
          </direction-type>
        </direction>
      <direction placement="below">
        <direction-type>
          <words>A</words>
          </direction-type>
        </direction>
      <note default-x="89.65" default-y="-25.00">
        <pitch>
          <step>A</step>
          <octave>4</octave>
          </pitch>
        <duration>2</duration>
        <voice>1</voice>
        <type>eighth</type>
        <time-modification>
          <actual-notes>3</actual-notes>
          <normal-notes>2</normal-notes>
          </time-modification>
        <stem>down</stem>
        <beam number="1">end</beam>
        <notations>
          <tuplet type="stop"/>
          </notations>
        </note>
      <direction placement="below">
        <direction-type>
          <words>G</words>
          </direction-type>
        </direction>
      <direction placement="below">
        <direction-type>
          <words>G</words>
          </direction-type>
        </direction>
      <note default-x="128.12" default-y="5.00">
        <pitch>
          <step>G</step>
          <octave>5</octave>
          </pitch>
        <duration>12</duration>
        <voice>1</voice>
        <type>half</type>
        <stem>down</stem>
        </note>
      <direction placement="below">
        <direction-type>
          <words>D</words>
          </direction-type>
        </direction>
      <direction placement="below">
        <direction-type>
          <words>D</words>
          </direction-type>
        </direction>
      <note default-x="227.53" default-y="-10.00">
        <pitch>
          <step>D</step>
          <octave>5</octave>
          </pitch>
        <duration>6</duration>
        <voice>1</voice>
        <type>quarter</type>
        <stem>down</stem>
        </note>
      </measure>
    <measure number="3" width="304.88">
      <direction placement="below">
        <direction-type>
          <words>C</words>
          </direction-type>
        </direction>
      <direction placement="below">
        <direction-type>
          <words>C</words>
          </direction-type>
        </direction>
      <note default-x="12.00" default-y="-15.00">
        <pitch>
          <step>C</step>
          <octave>5</octave>
          </pitch>
        <duration>2</duration>
        <voice>1</voice>
        <type>eighth</type>
        <time-modification>
          <actual-notes>3</actual-notes>
          <normal-notes>2</normal-notes>
          </time-modification>
        <stem>down</stem>
        <beam number="1">begin</beam>
        <notations>
          <tuplet type="start" bracket="no"/>
          </notations>
        </note>
      <direction placement="below">
        <direction-type>
          <words>H</words>
          </direction-type>
        </direction>
      <direction placement="below">
        <direction-type>
          <words>H</words>
          </direction-type>
        </direction>
      <note default-x="50.83" default-y="-20.00">
        <pitch>
          <step>B</step>
          <octave>4</octave>
          </pitch>
        <duration>2</duration>
        <voice>1</voice>
        <type>eighth</type>
        <time-modification>
          <actual-notes>3</actual-notes>
          <normal-notes>2</normal-notes>
          </time-modification>
        <stem>down</stem>
        <beam number="1">continue</beam>
        </note>
      <direction placement="below">
        <direction-type>
          <words>A</words>
          </direction-type>
        </direction>
      <direction placement="below">
        <direction-type>
          <words>A</words>
          </direction-type>
        </direction>
      <note default-x="89.65" default-y="-25.00">
        <pitch>
          <step>A</step>
          <octave>4</octave>
          </pitch>
        <duration>2</duration>
        <voice>1</voice>
        <type>eighth</type>
        <time-modification>
          <actual-notes>3</actual-notes>
          <normal-notes>2</normal-notes>
          </time-modification>
        <stem>down</stem>
        <beam number="1">end</beam>
        <notations>
          <tuplet type="stop"/>
          </notations>
        </note>
      <direction placement="below">
        <direction-type>
          <words>G</words>
          </direction-type>
        </direction>
      <direction placement="below">
        <direction-type>
          <words>G</words>
          </direction-type>
        </direction>
      <note default-x="128.12" default-y="5.00">
        <pitch>
          <step>G</step>
          <octave>5</octave>
          </pitch>
        <duration>12</duration>
        <voice>1</voice>
        <type>half</type>
        <stem>down</stem>
        </note>
      <direction placement="below">
        <direction-type>
          <words>D</words>
          </direction-type>
        </direction>
      <direction placement="below">
        <direction-type>
          <words>D</words>
          </direction-type>
        </direction>
      <note default-x="227.53" default-y="-10.00">
        <pitch>
          <step>D</step>
          <octave>5</octave>
          </pitch>
        <duration>6</duration>
        <voice>1</voice>
        <type>quarter</type>
        <stem>down</stem>
        </note>
      </measure>
    <measure number="4" width="321.49">
      <print new-system="yes">
        <system-layout>
          <system-margins>
            <left-margin>0.00</left-margin>
            <right-margin>0.00</right-margin>
            </system-margins>
          <system-distance>150.00</system-distance>
          </system-layout>
        </print>
      <direction placement="below">
        <direction-type>
          <words>C</words>
          </direction-type>
        </direction>
      <direction placement="below">
        <direction-type>
          <words>C</words>
          </direction-type>
        </direction>
      <note default-x="49.07" default-y="-15.00">
        <pitch>
          <step>C</step>
          <octave>5</octave>
          </pitch>
        <duration>2</duration>
        <voice>1</voice>
        <type>eighth</type>
        <time-modification>
          <actual-notes>3</actual-notes>
          <normal-notes>2</normal-notes>
          </time-modification>
        <stem>down</stem>
        <beam number="1">begin</beam>
        <notations>
          <tuplet type="start" bracket="no"/>
          </notations>
        </note>
      <direction placement="below">
        <direction-type>
          <words>H</words>
          </direction-type>
        </direction>
      <direction placement="below">
        <direction-type>
          <words>H</words>
          </direction-type>
        </direction>
      <note default-x="82.30" default-y="-20.00">
        <pitch>
          <step>B</step>
          <octave>4</octave>
          </pitch>
        <duration>2</duration>
        <voice>1</voice>
        <type>eighth</type>
        <time-modification>
          <actual-notes>3</actual-notes>
          <normal-notes>2</normal-notes>
          </time-modification>
        <stem>down</stem>
        <beam number="1">continue</beam>
        </note>
      <direction placement="below">
        <direction-type>
          <words>C</words>
          </direction-type>
        </direction>
      <direction placement="below">
        <direction-type>
          <words>C</words>
          </direction-type>
        </direction>
      <note default-x="115.53" default-y="-15.00">
        <pitch>
          <step>C</step>
          <octave>5</octave>
          </pitch>
        <duration>2</duration>
        <voice>1</voice>
        <type>eighth</type>
        <time-modification>
          <actual-notes>3</actual-notes>
          <normal-notes>2</normal-notes>
          </time-modification>
        <stem>down</stem>
        <beam number="1">end</beam>
        <notations>
          <tuplet type="stop"/>
          </notations>
        </note>
      <direction placement="below">
        <direction-type>
          <words>A</words>
          </direction-type>
        </direction>
      <direction placement="below">
        <direction-type>
          <words>A</words>
          </direction-type>
        </direction>
      <note default-x="148.39" default-y="-25.00">
        <pitch>
          <step>A</step>
          <octave>4</octave>
          </pitch>
        <duration>12</duration>
        <voice>1</voice>
        <type>half</type>
        <stem>up</stem>
        </note>
      <direction placement="below">
        <direction-type>
          <words>D</words>
          </direction-type>
        </direction>
      <direction placement="below">
        <direction-type>
          <words>D</words>
          </direction-type>
        </direction>
      <note default-x="233.51" default-y="-45.00">
        <pitch>
          <step>D</step>
          <octave>4</octave>
          </pitch>
        <duration>4</duration>
        <voice>1</voice>
        <type>quarter</type>
        <time-modification>
          <actual-notes>3</actual-notes>
          <normal-notes>2</normal-notes>
          <normal-type>eighth</normal-type>
          </time-modification>
        <stem>up</stem>
        <notations>
          <tuplet type="start" bracket="yes"/>
          </notations>
        </note>
      <direction placement="below">
        <direction-type>
          <words>D</words>
          </direction-type>
        </direction>
      <direction placement="below">
        <direction-type>
          <words>D</words>
          </direction-type>
        </direction>
      <note default-x="286.67" default-y="-45.00">
        <pitch>
          <step>D</step>
          <octave>4</octave>
          </pitch>
        <duration>2</duration>
        <voice>1</voice>
        <type>eighth</type>
        <time-modification>
          <actual-notes>3</actual-notes>
          <normal-notes>2</normal-notes>
          <normal-type>eighth</normal-type>
          </time-modification>
        <stem>up</stem>
        <notations>
          <tuplet type="stop"/>
          </notations>
        </note>
      </measure>
    <measure number="5" width="220.91">
      <direction placement="below">
        <direction-type>
          <words>G</words>
          </direction-type>
        </direction>
      <direction placement="below">
        <direction-type>
          <words>G</words>
          </direction-type>
        </direction>
      <note default-x="12.00" default-y="-30.00">
        <pitch>
          <step>G</step>
          <octave>4</octave>
          </pitch>
        <duration>12</duration>
        <voice>1</voice>
        <type>half</type>
        <stem>up</stem>
        </note>
      <direction placement="below">
        <direction-type>
          <words>D</words>
          </direction-type>
        </direction>
      <direction placement="below">
        <direction-type>
          <words>D</words>
          </direction-type>
        </direction>
      <note default-x="115.47" default-y="-10.00">
        <pitch>
          <step>D</step>
          <octave>5</octave>
          </pitch>
        <duration>12</duration>
        <voice>1</voice>
        <type>half</type>
        <stem>down</stem>
        </note>
      </measure>
    <measure number="6" width="267.54">
      <direction placement="below">
        <direction-type>
          <words>C</words>
          </direction-type>
        </direction>
      <direction placement="below">
        <direction-type>
          <words>C</words>
          </direction-type>
        </direction>
      <note default-x="12.00" default-y="-15.00">
        <pitch>
          <step>C</step>
          <octave>5</octave>
          </pitch>
        <duration>2</duration>
        <voice>1</voice>
        <type>eighth</type>
        <time-modification>
          <actual-notes>3</actual-notes>
          <normal-notes>2</normal-notes>
          </time-modification>
        <stem>down</stem>
        <beam number="1">begin</beam>
        <notations>
          <tuplet type="start" bracket="no"/>
          </notations>
        </note>
      <direction placement="below">
        <direction-type>
          <words>H</words>
          </direction-type>
        </direction>
      <direction placement="below">
        <direction-type>
          <words>H</words>
          </direction-type>
        </direction>
      <note default-x="45.85" default-y="-20.00">
        <pitch>
          <step>B</step>
          <octave>4</octave>
          </pitch>
        <duration>2</duration>
        <voice>1</voice>
        <type>eighth</type>
        <time-modification>
          <actual-notes>3</actual-notes>
          <normal-notes>2</normal-notes>
          </time-modification>
        <stem>down</stem>
        <beam number="1">continue</beam>
        </note>
      <direction placement="below">
        <direction-type>
          <words>A</words>
          </direction-type>
        </direction>
      <direction placement="below">
        <direction-type>
          <words>A</words>
          </direction-type>
        </direction>
      <note default-x="79.70" default-y="-25.00">
        <pitch>
          <step>A</step>
          <octave>4</octave>
          </pitch>
        <duration>2</duration>
        <voice>1</voice>
        <type>eighth</type>
        <time-modification>
          <actual-notes>3</actual-notes>
          <normal-notes>2</normal-notes>
          </time-modification>
        <stem>down</stem>
        <beam number="1">end</beam>
        <notations>
          <tuplet type="stop"/>
          </notations>
        </note>
      <direction placement="below">
        <direction-type>
          <words>G</words>
          </direction-type>
        </direction>
      <direction placement="below">
        <direction-type>
          <words>G</words>
          </direction-type>
        </direction>
      <note default-x="113.19" default-y="5.00">
        <pitch>
          <step>G</step>
          <octave>5</octave>
          </pitch>
        <duration>12</duration>
        <voice>1</voice>
        <type>half</type>
        <stem>down</stem>
        </note>
      <direction placement="below">
        <direction-type>
          <words>D</words>
          </direction-type>
        </direction>
      <direction placement="below">
        <direction-type>
          <words>D</words>
          </direction-type>
        </direction>
      <note default-x="199.90" default-y="-10.00">
        <pitch>
          <step>D</step>
          <octave>5</octave>
          </pitch>
        <duration>6</duration>
        <voice>1</voice>
        <type>quarter</type>
        <stem>down</stem>
        </note>
      </measure>
    <measure number="7" width="267.54">
      <direction placement="below">
        <direction-type>
          <words>C</words>
          </direction-type>
        </direction>
      <direction placement="below">
        <direction-type>
          <words>C</words>
          </direction-type>
        </direction>
      <note default-x="12.00" default-y="-15.00">
        <pitch>
          <step>C</step>
          <octave>5</octave>
          </pitch>
        <duration>2</duration>
        <voice>1</voice>
        <type>eighth</type>
        <time-modification>
          <actual-notes>3</actual-notes>
          <normal-notes>2</normal-notes>
          </time-modification>
        <stem>down</stem>
        <beam number="1">begin</beam>
        <notations>
          <tuplet type="start" bracket="no"/>
          </notations>
        </note>
      <direction placement="below">
        <direction-type>
          <words>H</words>
          </direction-type>
        </direction>
      <direction placement="below">
        <direction-type>
          <words>H</words>
          </direction-type>
        </direction>
      <note default-x="45.85" default-y="-20.00">
        <pitch>
          <step>B</step>
          <octave>4</octave>
          </pitch>
        <duration>2</duration>
        <voice>1</voice>
        <type>eighth</type>
        <time-modification>
          <actual-notes>3</actual-notes>
          <normal-notes>2</normal-notes>
          </time-modification>
        <stem>down</stem>
        <beam number="1">continue</beam>
        </note>
      <direction placement="below">
        <direction-type>
          <words>A</words>
          </direction-type>
        </direction>
      <direction placement="below">
        <direction-type>
          <words>A</words>
          </direction-type>
        </direction>
      <note default-x="79.70" default-y="-25.00">
        <pitch>
          <step>A</step>
          <octave>4</octave>
          </pitch>
        <duration>2</duration>
        <voice>1</voice>
        <type>eighth</type>
        <time-modification>
          <actual-notes>3</actual-notes>
          <normal-notes>2</normal-notes>
          </time-modification>
        <stem>down</stem>
        <beam number="1">end</beam>
        <notations>
          <tuplet type="stop"/>
          </notations>
        </note>
      <direction placement="below">
        <direction-type>
          <words>G</words>
          </direction-type>
        </direction>
      <direction placement="below">
        <direction-type>
          <words>G</words>
          </direction-type>
        </direction>
      <note default-x="113.19" default-y="5.00">
        <pitch>
          <step>G</step>
          <octave>5</octave>
          </pitch>
        <duration>12</duration>
        <voice>1</voice>
        <type>half</type>
        <stem>down</stem>
        </note>
      <direction placement="below">
        <direction-type>
          <words>D</words>
          </direction-type>
        </direction>
      <direction placement="below">
        <direction-type>
          <words>D</words>
          </direction-type>
        </direction>
      <note default-x="199.90" default-y="-10.00">
        <pitch>
          <step>D</step>
          <octave>5</octave>
          </pitch>
        <duration>6</duration>
        <voice>1</voice>
        <type>quarter</type>
        <stem>down</stem>
        </note>
      </measure>
    <measure number="8" width="273.32">
      <print new-system="yes">
        <system-layout>
          <system-margins>
            <left-margin>0.00</left-margin>
            <right-margin>0.00</right-margin>
            </system-margins>
          <system-distance>150.00</system-distance>
          </system-layout>
        </print>
      <direction placement="below">
        <direction-type>
          <words>C</words>
          </direction-type>
        </direction>
      <direction placement="below">
        <direction-type>
          <words>C</words>
          </direction-type>
        </direction>
      <note default-x="49.07" default-y="-15.00">
        <pitch>
          <step>C</step>
          <octave>5</octave>
          </pitch>
        <duration>2</duration>
        <voice>1</voice>
        <type>eighth</type>
        <time-modification>
          <actual-notes>3</actual-notes>
          <normal-notes>2</normal-notes>
          </time-modification>
        <stem>down</stem>
        <beam number="1">begin</beam>
        <notations>
          <tuplet type="start" bracket="no"/>
          </notations>
        </note>
      <direction placement="below">
        <direction-type>
          <words>H</words>
          </direction-type>
        </direction>
      <direction placement="below">
        <direction-type>
          <words>H</words>
          </direction-type>
        </direction>
      <note default-x="75.63" default-y="-20.00">
        <pitch>
          <step>B</step>
          <octave>4</octave>
          </pitch>
        <duration>2</duration>
        <voice>1</voice>
        <type>eighth</type>
        <time-modification>
          <actual-notes>3</actual-notes>
          <normal-notes>2</normal-notes>
          </time-modification>
        <stem>down</stem>
        <beam number="1">continue</beam>
        </note>
      <direction placement="below">
        <direction-type>
          <words>C</words>
          </direction-type>
        </direction>
      <direction placement="below">
        <direction-type>
          <words>C</words>
          </direction-type>
        </direction>
      <note default-x="102.18" default-y="-15.00">
        <pitch>
          <step>C</step>
          <octave>5</octave>
          </pitch>
        <duration>2</duration>
        <voice>1</voice>
        <type>eighth</type>
        <time-modification>
          <actual-notes>3</actual-notes>
          <normal-notes>2</normal-notes>
          </time-modification>
        <stem>down</stem>
        <beam number="1">end</beam>
        <notations>
          <tuplet type="stop"/>
          </notations>
        </note>
      <direction placement="below">
        <direction-type>
          <words>A</words>
          </direction-type>
        </direction>
      <direction placement="below">
        <direction-type>
          <words>A</words>
          </direction-type>
        </direction>
      <note default-x="128.37" default-y="-25.00">
        <pitch>
          <step>A</step>
          <octave>4</octave>
          </pitch>
        <duration>12</duration>
        <voice>1</voice>
        <type>half</type>
        <stem>up</stem>
        </note>
      <direction placement="below">
        <direction-type>
          <words>D</words>
          </direction-type>
        </direction>
      <direction placement="below">
        <direction-type>
          <words>D</words>
          </direction-type>
        </direction>
      <note default-x="196.46" default-y="-45.00">
        <pitch>
          <step>D</step>
          <octave>4</octave>
          </pitch>
        <duration>4</duration>
        <voice>1</voice>
        <type>quarter</type>
        <time-modification>
          <actual-notes>3</actual-notes>
          <normal-notes>2</normal-notes>
          <normal-type>eighth</normal-type>
          </time-modification>
        <stem>up</stem>
        <notations>
          <tuplet type="start" bracket="yes"/>
          </notations>
        </note>
      <direction placement="below">
        <direction-type>
          <words>D</words>
          </direction-type>
        </direction>
      <direction placement="below">
        <direction-type>
          <words>D</words>
          </direction-type>
        </direction>
      <note default-x="238.94" default-y="-45.00">
        <pitch>
          <step>D</step>
          <octave>4</octave>
          </pitch>
        <duration>2</duration>
        <voice>1</voice>
        <type>eighth</type>
        <time-modification>
          <actual-notes>3</actual-notes>
          <normal-notes>2</normal-notes>
          <normal-type>eighth</normal-type>
          </time-modification>
        <stem>up</stem>
        <notations>
          <tuplet type="stop"/>
          </notations>
        </note>
      </measure>
    <measure number="9" width="251.95">
      <direction placement="below">
        <direction-type>
          <words>E</words>
          </direction-type>
        </direction>
      <direction placement="below">
        <direction-type>
          <words>E</words>
          </direction-type>
        </direction>
      <note default-x="12.00" default-y="-40.00">
        <pitch>
          <step>E</step>
          <octave>4</octave>
          </pitch>
        <duration>9</duration>
        <voice>1</voice>
        <type>quarter</type>
        <dot/>
        <stem>up</stem>
        </note>
      <direction placement="below">
        <direction-type>
          <words>E</words>
          </direction-type>
        </direction>
      <direction placement="below">
        <direction-type>
          <words>E</words>
          </direction-type>
        </direction>
      <note default-x="78.90" default-y="-40.00">
        <pitch>
          <step>E</step>
          <octave>4</octave>
          </pitch>
        <duration>3</duration>
        <voice>1</voice>
        <type>eighth</type>
        <stem>up</stem>
        </note>
      <direction placement="below">
        <direction-type>
          <words>C</words>
          </direction-type>
        </direction>
      <direction placement="below">
        <direction-type>
          <words>C</words>
          </direction-type>
        </direction>
      <note default-x="113.19" default-y="-15.00">
        <pitch>
          <step>C</step>
          <octave>5</octave>
          </pitch>
        <duration>3</duration>
        <voice>1</voice>
        <type>eighth</type>
        <stem>up</stem>
        <beam number="1">begin</beam>
        </note>
      <direction placement="below">
        <direction-type>
          <words>H</words>
          </direction-type>
        </direction>
      <direction placement="below">
        <direction-type>
          <words>H</words>
          </direction-type>
        </direction>
      <note default-x="147.48" default-y="-20.00">
        <pitch>
          <step>B</step>
          <octave>4</octave>
          </pitch>
        <duration>3</duration>
        <voice>1</voice>
        <type>eighth</type>
        <stem>up</stem>
        <beam number="1">continue</beam>
        </note>
      <direction placement="below">
        <direction-type>
          <words>A</words>
          </direction-type>
        </direction>
      <direction placement="below">
        <direction-type>
          <words>A</words>
          </direction-type>
        </direction>
      <note default-x="181.77" default-y="-25.00">
        <pitch>
          <step>A</step>
          <octave>4</octave>
          </pitch>
        <duration>3</duration>
        <voice>1</voice>
        <type>eighth</type>
        <stem>up</stem>
        <beam number="1">continue</beam>
        </note>
      <direction placement="below">
        <direction-type>
          <words>G</words>
          </direction-type>
        </direction>
      <direction placement="below">
        <direction-type>
          <words>G</words>
          </direction-type>
        </direction>
      <note default-x="216.06" default-y="-30.00">
        <pitch>
          <step>G</step>
          <octave>4</octave>
          </pitch>
        <duration>3</duration>
        <voice>1</voice>
        <type>eighth</type>
        <stem>up</stem>
        <beam number="1">end</beam>
        </note>
      </measure>
    <measure number="10" width="300.28">
      <direction placement="below">
        <direction-type>
          <words>G</words>
          </direction-type>
        </direction>
      <direction placement="below">
        <direction-type>
          <words>G</words>
          </direction-type>
        </direction>
      <note default-x="12.00" default-y="-30.00">
        <pitch>
          <step>G</step>
          <octave>4</octave>
          </pitch>
        <duration>2</duration>
        <voice>1</voice>
        <type>eighth</type>
        <time-modification>
          <actual-notes>3</actual-notes>
          <normal-notes>2</normal-notes>
          </time-modification>
        <stem>up</stem>
        <beam number="1">begin</beam>
        <notations>
          <tuplet type="start" bracket="no"/>
          </notations>
        </note>
      <direction placement="below">
        <direction-type>
          <words>A</words>
          </direction-type>
        </direction>
      <direction placement="below">
        <direction-type>
          <words>A</words>
          </direction-type>
        </direction>
      <note default-x="38.16" default-y="-25.00">
        <pitch>
          <step>A</step>
          <octave>4</octave>
          </pitch>
        <duration>2</duration>
        <voice>1</voice>
        <type>eighth</type>
        <time-modification>
          <actual-notes>3</actual-notes>
          <normal-notes>2</normal-notes>
          </time-modification>
        <stem>up</stem>
        <beam number="1">continue</beam>
        </note>
      <direction placement="below">
        <direction-type>
          <words>H</words>
          </direction-type>
        </direction>
      <direction placement="below">
        <direction-type>
          <words>H</words>
          </direction-type>
        </direction>
      <note default-x="64.32" default-y="-20.00">
        <pitch>
          <step>B</step>
          <octave>4</octave>
          </pitch>
        <duration>2</duration>
        <voice>1</voice>
        <type>eighth</type>
        <time-modification>
          <actual-notes>3</actual-notes>
          <normal-notes>2</normal-notes>
          </time-modification>
        <stem>up</stem>
        <beam number="1">end</beam>
        <notations>
          <tuplet type="stop"/>
          </notations>
        </note>
      <direction placement="below">
        <direction-type>
          <words>A</words>
          </direction-type>
        </direction>
      <direction placement="below">
        <direction-type>
          <words>A</words>
          </direction-type>
        </direction>
      <note default-x="90.47" default-y="-25.00">
        <pitch>
          <step>A</step>
          <octave>4</octave>
          </pitch>
        <duration>4</duration>
        <voice>1</voice>
        <type>quarter</type>
        <time-modification>
          <actual-notes>3</actual-notes>
          <normal-notes>2</normal-notes>
          <normal-type>eighth</normal-type>
          </time-modification>
        <stem>up</stem>
        <notations>
          <tuplet type="start" bracket="yes"/>
          </notations>
        </note>
      <direction placement="below">
        <direction-type>
          <words>E</words>
          </direction-type>
        </direction>
      <direction placement="below">
        <direction-type>
          <words>E</words>
          </direction-type>
        </direction>
      <note default-x="132.33" default-y="-40.00">
        <pitch>
          <step>E</step>
          <octave>4</octave>
          </pitch>
        <duration>2</duration>
        <voice>1</voice>
        <type>eighth</type>
        <time-modification>
          <actual-notes>3</actual-notes>
          <normal-notes>2</normal-notes>
          <normal-type>eighth</normal-type>
          </time-modification>
        <stem>up</stem>
        <notations>
          <tuplet type="stop"/>
          </notations>
        </note>
      <direction placement="below">
        <direction-type>
          <words>Fis</words>
          </direction-type>
        </direction>
      <direction placement="below">
        <direction-type>
          <words>Fis</words>
          </direction-type>
        </direction>
      <note default-x="173.02" default-y="-35.00">
        <pitch>
          <step>F</step>
          <alter>1</alter>
          <octave>4</octave>
          </pitch>
        <duration>6</duration>
        <voice>1</voice>
        <type>quarter</type>
        <accidental>sharp</accidental>
        <stem>up</stem>
        </note>
      <direction placement="below">
        <direction-type>
          <words>D</words>
          </direction-type>
        </direction>
      <direction placement="below">
        <direction-type>
          <words>D</words>
          </direction-type>
        </direction>
      <note default-x="224.05" default-y="-45.00">
        <pitch>
          <step>D</step>
          <octave>4</octave>
          </pitch>
        <duration>4</duration>
        <voice>1</voice>
        <type>quarter</type>
        <time-modification>
          <actual-notes>3</actual-notes>
          <normal-notes>2</normal-notes>
          <normal-type>eighth</normal-type>
          </time-modification>
        <stem>up</stem>
        <notations>
          <tuplet type="start" bracket="yes"/>
          </notations>
        </note>
      <direction placement="below">
        <direction-type>
          <words>D</words>
          </direction-type>
        </direction>
      <direction placement="below">
        <direction-type>
          <words>D</words>
          </direction-type>
        </direction>
      <note default-x="265.90" default-y="-45.00">
        <pitch>
          <step>D</step>
          <octave>4</octave>
          </pitch>
        <duration>2</duration>
        <voice>1</voice>
        <type>eighth</type>
        <time-modification>
          <actual-notes>3</actual-notes>
          <normal-notes>2</normal-notes>
          <normal-type>eighth</normal-type>
          </time-modification>
        <stem>up</stem>
        <notations>
          <tuplet type="stop"/>
          </notations>
        </note>
      </measure>
    <measure number="11" width="251.95">
      <direction placement="below">
        <direction-type>
          <words>E</words>
          </direction-type>
        </direction>
      <direction placement="below">
        <direction-type>
          <words>E</words>
          </direction-type>
        </direction>
      <note default-x="12.00" default-y="-40.00">
        <pitch>
          <step>E</step>
          <octave>4</octave>
          </pitch>
        <duration>9</duration>
        <voice>1</voice>
        <type>quarter</type>
        <dot/>
        <stem>up</stem>
        </note>
      <direction placement="below">
        <direction-type>
          <words>E</words>
          </direction-type>
        </direction>
      <direction placement="below">
        <direction-type>
          <words>E</words>
          </direction-type>
        </direction>
      <note default-x="78.90" default-y="-40.00">
        <pitch>
          <step>E</step>
          <octave>4</octave>
          </pitch>
        <duration>3</duration>
        <voice>1</voice>
        <type>eighth</type>
        <stem>up</stem>
        </note>
      <direction placement="below">
        <direction-type>
          <words>C</words>
          </direction-type>
        </direction>
      <direction placement="below">
        <direction-type>
          <words>C</words>
          </direction-type>
        </direction>
      <note default-x="113.19" default-y="-15.00">
        <pitch>
          <step>C</step>
          <octave>5</octave>
          </pitch>
        <duration>3</duration>
        <voice>1</voice>
        <type>eighth</type>
        <stem>up</stem>
        <beam number="1">begin</beam>
        </note>
      <direction placement="below">
        <direction-type>
          <words>H</words>
          </direction-type>
        </direction>
      <direction placement="below">
        <direction-type>
          <words>H</words>
          </direction-type>
        </direction>
      <note default-x="147.48" default-y="-20.00">
        <pitch>
          <step>B</step>
          <octave>4</octave>
          </pitch>
        <duration>3</duration>
        <voice>1</voice>
        <type>eighth</type>
        <stem>up</stem>
        <beam number="1">continue</beam>
        </note>
      <direction placement="below">
        <direction-type>
          <words>A</words>
          </direction-type>
        </direction>
      <direction placement="below">
        <direction-type>
          <words>A</words>
          </direction-type>
        </direction>
      <note default-x="181.77" default-y="-25.00">
        <pitch>
          <step>A</step>
          <octave>4</octave>
          </pitch>
        <duration>3</duration>
        <voice>1</voice>
        <type>eighth</type>
        <stem>up</stem>
        <beam number="1">continue</beam>
        </note>
      <direction placement="below">
        <direction-type>
          <words>G</words>
          </direction-type>
        </direction>
      <direction placement="below">
        <direction-type>
          <words>G</words>
          </direction-type>
        </direction>
      <note default-x="216.06" default-y="-30.00">
        <pitch>
          <step>G</step>
          <octave>4</octave>
          </pitch>
        <duration>3</duration>
        <voice>1</voice>
        <type>eighth</type>
        <stem>up</stem>
        <beam number="1">end</beam>
        </note>
      </measure>
    <measure number="12" width="242.16">
      <print new-system="yes">
        <system-layout>
          <system-margins>
            <left-margin>0.00</left-margin>
            <right-margin>0.00</right-margin>
            </system-margins>
          <system-distance>150.00</system-distance>
          </system-layout>
        </print>
      <direction placement="below">
        <direction-type>
          <words>D</words>
          </direction-type>
        </direction>
      <direction placement="below">
        <direction-type>
          <words>D</words>
          </direction-type>
        </direction>
      <note default-x="49.07" default-y="-10.00">
        <pitch>
          <step>D</step>
          <octave>5</octave>
          </pitch>
        <duration>6</duration>
        <voice>1</voice>
        <type>quarter</type>
        <stem>down</stem>
        </note>
      <direction placement="below">
        <direction-type>
          <words>A</words>
          </direction-type>
        </direction>
      <direction placement="below">
        <direction-type>
          <words>A</words>
          </direction-type>
        </direction>
      <note default-x="99.46" default-y="-25.00">
        <pitch>
          <step>A</step>
          <octave>4</octave>
          </pitch>
        <duration>12</duration>
        <voice>1</voice>
        <type>half</type>
        <stem>up</stem>
        </note>
      <direction placement="below">
        <direction-type>
          <words>D</words>
          </direction-type>
        </direction>
      <direction placement="below">
        <direction-type>
          <words>D</words>
          </direction-type>
        </direction>
      <note default-x="166.17" default-y="-45.00">
        <pitch>
          <step>D</step>
          <octave>4</octave>
          </pitch>
        <duration>4</duration>
        <voice>1</voice>
        <type>quarter</type>
        <time-modification>
          <actual-notes>3</actual-notes>
          <normal-notes>2</normal-notes>
          <normal-type>eighth</normal-type>
          </time-modification>
        <stem>up</stem>
        <notations>
          <tuplet type="start" bracket="yes"/>
          </notations>
        </note>
      <direction placement="below">
        <direction-type>
          <words>D</words>
          </direction-type>
        </direction>
      <direction placement="below">
        <direction-type>
          <words>D</words>
          </direction-type>
        </direction>
      <note default-x="207.79" default-y="-45.00">
        <pitch>
          <step>D</step>
          <octave>4</octave>
          </pitch>
        <duration>2</duration>
        <voice>1</voice>
        <type>eighth</type>
        <time-modification>
          <actual-notes>3</actual-notes>
          <normal-notes>2</normal-notes>
          <normal-type>eighth</normal-type>
          </time-modification>
        <stem>up</stem>
        <notations>
          <tuplet type="stop"/>
          </notations>
        </note>
      </measure>
    <measure number="13" width="252.13">
      <direction placement="below">
        <direction-type>
          <words>E</words>
          </direction-type>
        </direction>
      <direction placement="below">
        <direction-type>
          <words>E</words>
          </direction-type>
        </direction>
      <note default-x="12.00" default-y="-40.00">
        <pitch>
          <step>E</step>
          <octave>4</octave>
          </pitch>
        <duration>9</duration>
        <voice>1</voice>
        <type>quarter</type>
        <dot/>
        <stem>up</stem>
        </note>
      <direction placement="below">
        <direction-type>
          <words>E</words>
          </direction-type>
        </direction>
      <direction placement="below">
        <direction-type>
          <words>E</words>
          </direction-type>
        </direction>
      <note default-x="78.95" default-y="-40.00">
        <pitch>
          <step>E</step>
          <octave>4</octave>
          </pitch>
        <duration>3</duration>
        <voice>1</voice>
        <type>eighth</type>
        <stem>up</stem>
        </note>
      <direction placement="below">
        <direction-type>
          <words>C</words>
          </direction-type>
        </direction>
      <direction placement="below">
        <direction-type>
          <words>C</words>
          </direction-type>
        </direction>
      <note default-x="113.27" default-y="-15.00">
        <pitch>
          <step>C</step>
          <octave>5</octave>
          </pitch>
        <duration>3</duration>
        <voice>1</voice>
        <type>eighth</type>
        <stem>up</stem>
        <beam number="1">begin</beam>
        </note>
      <direction placement="below">
        <direction-type>
          <words>H</words>
          </direction-type>
        </direction>
      <direction placement="below">
        <direction-type>
          <words>H</words>
          </direction-type>
        </direction>
      <note default-x="147.58" default-y="-20.00">
        <pitch>
          <step>B</step>
          <octave>4</octave>
          </pitch>
        <duration>3</duration>
        <voice>1</voice>
        <type>eighth</type>
        <stem>up</stem>
        <beam number="1">continue</beam>
        </note>
      <direction placement="below">
        <direction-type>
          <words>A</words>
          </direction-type>
        </direction>
      <direction placement="below">
        <direction-type>
          <words>A</words>
          </direction-type>
        </direction>
      <note default-x="181.90" default-y="-25.00">
        <pitch>
          <step>A</step>
          <octave>4</octave>
          </pitch>
        <duration>3</duration>
        <voice>1</voice>
        <type>eighth</type>
        <stem>up</stem>
        <beam number="1">continue</beam>
        </note>
      <direction placement="below">
        <direction-type>
          <words>G</words>
          </direction-type>
        </direction>
      <direction placement="below">
        <direction-type>
          <words>G</words>
          </direction-type>
        </direction>
      <note default-x="216.21" default-y="-30.00">
        <pitch>
          <step>G</step>
          <octave>4</octave>
          </pitch>
        <duration>3</duration>
        <voice>1</voice>
        <type>eighth</type>
        <stem>up</stem>
        <beam number="1">end</beam>
        </note>
      </measure>
    <measure number="14" width="290.84">
      <direction placement="below">
        <direction-type>
          <words>G</words>
          </direction-type>
        </direction>
      <direction placement="below">
        <direction-type>
          <words>G</words>
          </direction-type>
        </direction>
      <note default-x="12.00" default-y="-30.00">
        <pitch>
          <step>G</step>
          <octave>4</octave>
          </pitch>
        <duration>2</duration>
        <voice>1</voice>
        <type>eighth</type>
        <time-modification>
          <actual-notes>3</actual-notes>
          <normal-notes>2</normal-notes>
          </time-modification>
        <stem>up</stem>
        <beam number="1">begin</beam>
        <notations>
          <tuplet type="start" bracket="no"/>
          </notations>
        </note>
      <direction placement="below">
        <direction-type>
          <words>A</words>
          </direction-type>
        </direction>
      <direction placement="below">
        <direction-type>
          <words>A</words>
          </direction-type>
        </direction>
      <note default-x="37.85" default-y="-25.00">
        <pitch>
          <step>A</step>
          <octave>4</octave>
          </pitch>
        <duration>2</duration>
        <voice>1</voice>
        <type>eighth</type>
        <time-modification>
          <actual-notes>3</actual-notes>
          <normal-notes>2</normal-notes>
          </time-modification>
        <stem>up</stem>
        <beam number="1">continue</beam>
        </note>
      <direction placement="below">
        <direction-type>
          <words>H</words>
          </direction-type>
        </direction>
      <direction placement="below">
        <direction-type>
          <words>H</words>
          </direction-type>
        </direction>
      <note default-x="63.70" default-y="-20.00">
        <pitch>
          <step>B</step>
          <octave>4</octave>
          </pitch>
        <duration>2</duration>
        <voice>1</voice>
        <type>eighth</type>
        <time-modification>
          <actual-notes>3</actual-notes>
          <normal-notes>2</normal-notes>
          </time-modification>
        <stem>up</stem>
        <beam number="1">end</beam>
        <notations>
          <tuplet type="stop"/>
          </notations>
        </note>
      <direction placement="below">
        <direction-type>
          <words>A</words>
          </direction-type>
        </direction>
      <direction placement="below">
        <direction-type>
          <words>A</words>
          </direction-type>
        </direction>
      <note default-x="89.55" default-y="-25.00">
        <pitch>
          <step>A</step>
          <octave>4</octave>
          </pitch>
        <duration>4</duration>
        <voice>1</voice>
        <type>quarter</type>
        <time-modification>
          <actual-notes>3</actual-notes>
          <normal-notes>2</normal-notes>
          <normal-type>eighth</normal-type>
          </time-modification>
        <stem>up</stem>
        <notations>
          <tuplet type="start" bracket="yes"/>
          </notations>
        </note>
      <direction placement="below">
        <direction-type>
          <words>E</words>
          </direction-type>
        </direction>
      <direction placement="below">
        <direction-type>
          <words>E</words>
          </direction-type>
        </direction>
      <note default-x="130.91" default-y="-40.00">
        <pitch>
          <step>E</step>
          <octave>4</octave>
          </pitch>
        <duration>2</duration>
        <voice>1</voice>
        <type>eighth</type>
        <time-modification>
          <actual-notes>3</actual-notes>
          <normal-notes>2</normal-notes>
          <normal-type>eighth</normal-type>
          </time-modification>
        <stem>up</stem>
        <notations>
          <tuplet type="stop"/>
          </notations>
        </note>
      <direction placement="below">
        <direction-type>
          <words>Fis</words>
          </direction-type>
        </direction>
      <direction placement="below">
        <direction-type>
          <words>Fis</words>
          </direction-type>
        </direction>
      <note default-x="171.60" default-y="-35.00">
        <pitch>
          <step>F</step>
          <alter>1</alter>
          <octave>4</octave>
          </pitch>
        <duration>6</duration>
        <voice>1</voice>
        <type>quarter</type>
        <accidental>sharp</accidental>
        <stem>up</stem>
        </note>
      <direction placement="below">
        <direction-type>
          <words>D</words>
          </direction-type>
        </direction>
      <direction placement="below">
        <direction-type>
          <words>D</words>
          </direction-type>
        </direction>
      <note default-x="222.03" default-y="-10.00">
        <pitch>
          <step>D</step>
          <octave>5</octave>
          </pitch>
        <duration>4</duration>
        <voice>1</voice>
        <type>quarter</type>
        <time-modification>
          <actual-notes>3</actual-notes>
          <normal-notes>2</normal-notes>
          <normal-type>eighth</normal-type>
          </time-modification>
        <stem>down</stem>
        <notations>
          <tuplet type="start" bracket="yes"/>
          </notations>
        </note>
      <direction placement="below">
        <direction-type>
          <words>D</words>
          </direction-type>
        </direction>
      <direction placement="below">
        <direction-type>
          <words>D</words>
          </direction-type>
        </direction>
      <note default-x="263.39" default-y="-10.00">
        <pitch>
          <step>D</step>
          <octave>5</octave>
          </pitch>
        <duration>2</duration>
        <voice>1</voice>
        <type>eighth</type>
        <time-modification>
          <actual-notes>3</actual-notes>
          <normal-notes>2</normal-notes>
          <normal-type>eighth</normal-type>
          </time-modification>
        <stem>down</stem>
        <notations>
          <tuplet type="stop"/>
          </notations>
        </note>
      </measure>
    <measure number="15" width="292.36">
      <direction placement="below">
        <direction-type>
          <words>G</words>
          </direction-type>
        </direction>
      <direction placement="below">
        <direction-type>
          <words>G</words>
          </direction-type>
        </direction>
      <note default-x="12.00" default-y="5.00">
        <pitch>
          <step>G</step>
          <octave>5</octave>
          </pitch>
        <duration>3</duration>
        <voice>1</voice>
        <type>eighth</type>
        <stem>down</stem>
        <beam number="1">begin</beam>
        </note>
      <direction placement="below">
        <direction-type>
          <words>F</words>
          </direction-type>
        </direction>
      <direction placement="below">
        <direction-type>
          <words>F</words>
          </direction-type>
        </direction>
      <note default-x="46.84" default-y="0.00">
        <pitch>
          <step>F</step>
          <octave>5</octave>
          </pitch>
        <duration>3</duration>
        <voice>1</voice>
        <type>eighth</type>
        <stem>down</stem>
        <beam number="1">continue</beam>
        </note>
      <direction placement="below">
        <direction-type>
          <words>Es</words>
          </direction-type>
        </direction>
      <direction placement="below">
        <direction-type>
          <words>Es</words>
          </direction-type>
        </direction>
      <note default-x="81.69" default-y="-5.00">
        <pitch>
          <step>E</step>
          <alter>-1</alter>
          <octave>5</octave>
          </pitch>
        <duration>3</duration>
        <voice>1</voice>
        <type>eighth</type>
        <accidental>flat</accidental>
        <stem>down</stem>
        <beam number="1">continue</beam>
        </note>
      <direction placement="below">
        <direction-type>
          <words>D</words>
          </direction-type>
        </direction>
      <direction placement="below">
        <direction-type>
          <words>D</words>
          </direction-type>
        </direction>
      <note default-x="116.53" default-y="-10.00">
        <pitch>
          <step>D</step>
          <octave>5</octave>
          </pitch>
        <duration>3</duration>
        <voice>1</voice>
        <type>eighth</type>
        <stem>down</stem>
        <beam number="1">end</beam>
        </note>
      <direction placement="below">
        <direction-type>
          <words>C</words>
          </direction-type>
        </direction>
      <direction placement="below">
        <direction-type>
          <words>C</words>
          </direction-type>
        </direction>
      <note default-x="151.38" default-y="-15.00">
        <pitch>
          <step>C</step>
          <octave>5</octave>
          </pitch>
        <duration>3</duration>
        <voice>1</voice>
        <type>eighth</type>
        <stem>up</stem>
        <beam number="1">begin</beam>
        </note>
      <direction placement="below">
        <direction-type>
          <words>B</words>
          </direction-type>
        </direction>
      <direction placement="below">
        <direction-type>
          <words>B</words>
          </direction-type>
        </direction>
      <note default-x="186.22" default-y="-20.00">
        <pitch>
          <step>B</step>
          <alter>-1</alter>
          <octave>4</octave>
          </pitch>
        <duration>3</duration>
        <voice>1</voice>
        <type>eighth</type>
        <accidental>flat</accidental>
        <stem>up</stem>
        <beam number="1">continue</beam>
        </note>
      <direction placement="below">
        <direction-type>
          <words>A</words>
          </direction-type>
        </direction>
      <direction placement="below">
        <direction-type>
          <words>A</words>
          </direction-type>
        </direction>
      <note default-x="221.07" default-y="-25.00">
        <pitch>
          <step>A</step>
          <octave>4</octave>
          </pitch>
        <duration>3</duration>
        <voice>1</voice>
        <type>eighth</type>
        <stem>up</stem>
        <beam number="1">continue</beam>
        </note>
      <direction placement="below">
        <direction-type>
          <words>G</words>
          </direction-type>
        </direction>
      <direction placement="below">
        <direction-type>
          <words>G</words>
          </direction-type>
        </direction>
      <note default-x="255.91" default-y="-30.00">
        <pitch>
          <step>G</step>
          <octave>4</octave>
          </pitch>
        <duration>3</duration>
        <voice>1</voice>
        <type>eighth</type>
        <stem>up</stem>
        <beam number="1">end</beam>
        </note>
      </measure>
    <measure number="16" width="296.81">
      <print new-system="yes">
        <system-layout>
          <system-margins>
            <left-margin>0.00</left-margin>
            <right-margin>0.00</right-margin>
            </system-margins>
          <system-distance>150.00</system-distance>
          </system-layout>
        </print>
      <direction placement="below">
        <direction-type>
          <words>D</words>
          </direction-type>
        </direction>
      <direction placement="below">
        <direction-type>
          <words>D</words>
          </direction-type>
        </direction>
      <note default-x="49.07" default-y="-10.00">
        <pitch>
          <step>D</step>
          <octave>5</octave>
          </pitch>
        <duration>18</duration>
        <voice>1</voice>
        <type>half</type>
        <dot/>
        <stem>down</stem>
        </note>
      <direction placement="below">
        <direction-type>
          <words>D</words>
          </direction-type>
        </direction>
      <direction placement="below">
        <direction-type>
          <words>D</words>
          </direction-type>
        </direction>
      <note default-x="170.28" default-y="-45.00">
        <pitch>
          <step>D</step>
          <octave>4</octave>
          </pitch>
        <duration>2</duration>
        <voice>1</voice>
        <type>eighth</type>
        <time-modification>
          <actual-notes>3</actual-notes>
          <normal-notes>2</normal-notes>
          </time-modification>
        <stem>up</stem>
        <beam number="1">begin</beam>
        <notations>
          <tuplet type="start" bracket="no"/>
          </notations>
        </note>
      <direction placement="below">
        <direction-type>
          <words>D</words>
          </direction-type>
        </direction>
      <direction placement="below">
        <direction-type>
          <words>D</words>
          </direction-type>
        </direction>
      <note default-x="211.93" default-y="-45.00">
        <pitch>
          <step>D</step>
          <octave>4</octave>
          </pitch>
        <duration>2</duration>
        <voice>1</voice>
        <type>eighth</type>
        <time-modification>
          <actual-notes>3</actual-notes>
          <normal-notes>2</normal-notes>
          </time-modification>
        <stem>up</stem>
        <beam number="1">continue</beam>
        </note>
      <direction placement="below">
        <direction-type>
          <words>D</words>
          </direction-type>
        </direction>
      <direction placement="below">
        <direction-type>
          <words>D</words>
          </direction-type>
        </direction>
      <note default-x="253.57" default-y="-45.00">
        <pitch>
          <step>D</step>
          <octave>4</octave>
          </pitch>
        <duration>2</duration>
        <voice>1</voice>
        <type>eighth</type>
        <time-modification>
          <actual-notes>3</actual-notes>
          <normal-notes>2</normal-notes>
          </time-modification>
        <stem>up</stem>
        <beam number="1">end</beam>
        <notations>
          <tuplet type="stop"/>
          </notations>
        </note>
      </measure>
    <measure number="17" width="229.14">
      <direction placement="below">
        <direction-type>
          <words>G</words>
          </direction-type>
        </direction>
      <direction placement="below">
        <direction-type>
          <words>G</words>
          </direction-type>
        </direction>
      <note default-x="12.00" default-y="-30.00">
        <pitch>
          <step>G</step>
          <octave>4</octave>
          </pitch>
        <duration>12</duration>
        <voice>1</voice>
        <type>half</type>
        <stem>up</stem>
        </note>
      <direction placement="below">
        <direction-type>
          <words>D</words>
          </direction-type>
        </direction>
      <direction placement="below">
        <direction-type>
          <words>D</words>
          </direction-type>
        </direction>
      <note default-x="119.59" default-y="-10.00">
        <pitch>
          <step>D</step>
          <octave>5</octave>
          </pitch>
        <duration>12</duration>
        <voice>1</voice>
        <type>half</type>
        <stem>down</stem>
        </note>
      </measure>
    <measure number="18" width="275.77">
      <direction placement="below">
        <direction-type>
          <words>C</words>
          </direction-type>
        </direction>
      <direction placement="below">
        <direction-type>
          <words>C</words>
          </direction-type>
        </direction>
      <note default-x="12.00" default-y="-15.00">
        <pitch>
          <step>C</step>
          <octave>5</octave>
          </pitch>
        <duration>2</duration>
        <voice>1</voice>
        <type>eighth</type>
        <time-modification>
          <actual-notes>3</actual-notes>
          <normal-notes>2</normal-notes>
          </time-modification>
        <stem>down</stem>
        <beam number="1">begin</beam>
        <notations>
          <tuplet type="start" bracket="no"/>
          </notations>
        </note>
      <direction placement="below">
        <direction-type>
          <words>H</words>
          </direction-type>
        </direction>
      <direction placement="below">
        <direction-type>
          <words>H</words>
          </direction-type>
        </direction>
      <note default-x="46.95" default-y="-20.00">
        <pitch>
          <step>B</step>
          <octave>4</octave>
          </pitch>
        <duration>2</duration>
        <voice>1</voice>
        <type>eighth</type>
        <time-modification>
          <actual-notes>3</actual-notes>
          <normal-notes>2</normal-notes>
          </time-modification>
        <stem>down</stem>
        <beam number="1">continue</beam>
        </note>
      <direction placement="below">
        <direction-type>
          <words>A</words>
          </direction-type>
        </direction>
      <direction placement="below">
        <direction-type>
          <words>A</words>
          </direction-type>
        </direction>
      <note default-x="81.89" default-y="-25.00">
        <pitch>
          <step>A</step>
          <octave>4</octave>
          </pitch>
        <duration>2</duration>
        <voice>1</voice>
        <type>eighth</type>
        <time-modification>
          <actual-notes>3</actual-notes>
          <normal-notes>2</normal-notes>
          </time-modification>
        <stem>down</stem>
        <beam number="1">end</beam>
        <notations>
          <tuplet type="stop"/>
          </notations>
        </note>
      <direction placement="below">
        <direction-type>
          <words>G</words>
          </direction-type>
        </direction>
      <direction placement="below">
        <direction-type>
          <words>G</words>
          </direction-type>
        </direction>
      <note default-x="116.48" default-y="5.00">
        <pitch>
          <step>G</step>
          <octave>5</octave>
          </pitch>
        <duration>12</duration>
        <voice>1</voice>
        <type>half</type>
        <stem>down</stem>
        </note>
      <direction placement="below">
        <direction-type>
          <words>D</words>
          </direction-type>
        </direction>
      <direction placement="below">
        <direction-type>
          <words>D</words>
          </direction-type>
        </direction>
      <note default-x="205.99" default-y="-10.00">
        <pitch>
          <step>D</step>
          <octave>5</octave>
          </pitch>
        <duration>6</duration>
        <voice>1</voice>
        <type>quarter</type>
        <stem>down</stem>
        </note>
      </measure>
    <measure number="19" width="275.77">
      <direction placement="below">
        <direction-type>
          <words>C</words>
          </direction-type>
        </direction>
      <direction placement="below">
        <direction-type>
          <words>C</words>
          </direction-type>
        </direction>
      <note default-x="12.00" default-y="-15.00">
        <pitch>
          <step>C</step>
          <octave>5</octave>
          </pitch>
        <duration>2</duration>
        <voice>1</voice>
        <type>eighth</type>
        <time-modification>
          <actual-notes>3</actual-notes>
          <normal-notes>2</normal-notes>
          </time-modification>
        <stem>down</stem>
        <beam number="1">begin</beam>
        <notations>
          <tuplet type="start" bracket="no"/>
          </notations>
        </note>
      <direction placement="below">
        <direction-type>
          <words>H</words>
          </direction-type>
        </direction>
      <direction placement="below">
        <direction-type>
          <words>H</words>
          </direction-type>
        </direction>
      <note default-x="46.95" default-y="-20.00">
        <pitch>
          <step>B</step>
          <octave>4</octave>
          </pitch>
        <duration>2</duration>
        <voice>1</voice>
        <type>eighth</type>
        <time-modification>
          <actual-notes>3</actual-notes>
          <normal-notes>2</normal-notes>
          </time-modification>
        <stem>down</stem>
        <beam number="1">continue</beam>
        </note>
      <direction placement="below">
        <direction-type>
          <words>A</words>
          </direction-type>
        </direction>
      <direction placement="below">
        <direction-type>
          <words>A</words>
          </direction-type>
        </direction>
      <note default-x="81.89" default-y="-25.00">
        <pitch>
          <step>A</step>
          <octave>4</octave>
          </pitch>
        <duration>2</duration>
        <voice>1</voice>
        <type>eighth</type>
        <time-modification>
          <actual-notes>3</actual-notes>
          <normal-notes>2</normal-notes>
          </time-modification>
        <stem>down</stem>
        <beam number="1">end</beam>
        <notations>
          <tuplet type="stop"/>
          </notations>
        </note>
      <direction placement="below">
        <direction-type>
          <words>G</words>
          </direction-type>
        </direction>
      <direction placement="below">
        <direction-type>
          <words>G</words>
          </direction-type>
        </direction>
      <note default-x="116.48" default-y="5.00">
        <pitch>
          <step>G</step>
          <octave>5</octave>
          </pitch>
        <duration>12</duration>
        <voice>1</voice>
        <type>half</type>
        <stem>down</stem>
        </note>
      <direction placement="below">
        <direction-type>
          <words>D</words>
          </direction-type>
        </direction>
      <direction placement="below">
        <direction-type>
          <words>D</words>
          </direction-type>
        </direction>
      <note default-x="205.99" default-y="-10.00">
        <pitch>
          <step>D</step>
          <octave>5</octave>
          </pitch>
        <duration>6</duration>
        <voice>1</voice>
        <type>quarter</type>
        <stem>down</stem>
        </note>
      </measure>
    <measure number="20" width="321.49">
      <print new-system="yes">
        <system-layout>
          <system-margins>
            <left-margin>0.00</left-margin>
            <right-margin>0.00</right-margin>
            </system-margins>
          <system-distance>150.00</system-distance>
          </system-layout>
        </print>
      <direction placement="below">
        <direction-type>
          <words>C</words>
          </direction-type>
        </direction>
      <direction placement="below">
        <direction-type>
          <words>C</words>
          </direction-type>
        </direction>
      <note default-x="49.07" default-y="-15.00">
        <pitch>
          <step>C</step>
          <octave>5</octave>
          </pitch>
        <duration>2</duration>
        <voice>1</voice>
        <type>eighth</type>
        <time-modification>
          <actual-notes>3</actual-notes>
          <normal-notes>2</normal-notes>
          </time-modification>
        <stem>down</stem>
        <beam number="1">begin</beam>
        <notations>
          <tuplet type="start" bracket="no"/>
          </notations>
        </note>
      <direction placement="below">
        <direction-type>
          <words>H</words>
          </direction-type>
        </direction>
      <direction placement="below">
        <direction-type>
          <words>H</words>
          </direction-type>
        </direction>
      <note default-x="82.30" default-y="-20.00">
        <pitch>
          <step>B</step>
          <octave>4</octave>
          </pitch>
        <duration>2</duration>
        <voice>1</voice>
        <type>eighth</type>
        <time-modification>
          <actual-notes>3</actual-notes>
          <normal-notes>2</normal-notes>
          </time-modification>
        <stem>down</stem>
        <beam number="1">continue</beam>
        </note>
      <direction placement="below">
        <direction-type>
          <words>C</words>
          </direction-type>
        </direction>
      <direction placement="below">
        <direction-type>
          <words>C</words>
          </direction-type>
        </direction>
      <note default-x="115.53" default-y="-15.00">
        <pitch>
          <step>C</step>
          <octave>5</octave>
          </pitch>
        <duration>2</duration>
        <voice>1</voice>
        <type>eighth</type>
        <time-modification>
          <actual-notes>3</actual-notes>
          <normal-notes>2</normal-notes>
          </time-modification>
        <stem>down</stem>
        <beam number="1">end</beam>
        <notations>
          <tuplet type="stop"/>
          </notations>
        </note>
      <direction placement="below">
        <direction-type>
          <words>A</words>
          </direction-type>
        </direction>
      <direction placement="below">
        <direction-type>
          <words>A</words>
          </direction-type>
        </direction>
      <note default-x="148.39" default-y="-25.00">
        <pitch>
          <step>A</step>
          <octave>4</octave>
          </pitch>
        <duration>12</duration>
        <voice>1</voice>
        <type>half</type>
        <stem>up</stem>
        </note>
      <direction placement="below">
        <direction-type>
          <words>D</words>
          </direction-type>
        </direction>
      <direction placement="below">
        <direction-type>
          <words>D</words>
          </direction-type>
        </direction>
      <note default-x="233.51" default-y="-45.00">
        <pitch>
          <step>D</step>
          <octave>4</octave>
          </pitch>
        <duration>4</duration>
        <voice>1</voice>
        <type>quarter</type>
        <time-modification>
          <actual-notes>3</actual-notes>
          <normal-notes>2</normal-notes>
          <normal-type>eighth</normal-type>
          </time-modification>
        <stem>up</stem>
        <notations>
          <tuplet type="start" bracket="yes"/>
          </notations>
        </note>
      <direction placement="below">
        <direction-type>
          <words>D</words>
          </direction-type>
        </direction>
      <direction placement="below">
        <direction-type>
          <words>D</words>
          </direction-type>
        </direction>
      <note default-x="286.67" default-y="-45.00">
        <pitch>
          <step>D</step>
          <octave>4</octave>
          </pitch>
        <duration>2</duration>
        <voice>1</voice>
        <type>eighth</type>
        <time-modification>
          <actual-notes>3</actual-notes>
          <normal-notes>2</normal-notes>
          <normal-type>eighth</normal-type>
          </time-modification>
        <stem>up</stem>
        <notations>
          <tuplet type="stop"/>
          </notations>
        </note>
      </measure>
    <measure number="21" width="220.91">
      <direction placement="below">
        <direction-type>
          <words>G</words>
          </direction-type>
        </direction>
      <direction placement="below">
        <direction-type>
          <words>G</words>
          </direction-type>
        </direction>
      <note default-x="12.00" default-y="-30.00">
        <pitch>
          <step>G</step>
          <octave>4</octave>
          </pitch>
        <duration>12</duration>
        <voice>1</voice>
        <type>half</type>
        <stem>up</stem>
        </note>
      <direction placement="below">
        <direction-type>
          <words>D</words>
          </direction-type>
        </direction>
      <direction placement="below">
        <direction-type>
          <words>D</words>
          </direction-type>
        </direction>
      <note default-x="115.47" default-y="-10.00">
        <pitch>
          <step>D</step>
          <octave>5</octave>
          </pitch>
        <duration>12</duration>
        <voice>1</voice>
        <type>half</type>
        <stem>down</stem>
        </note>
      </measure>
    <measure number="22" width="267.54">
      <direction placement="below">
        <direction-type>
          <words>C</words>
          </direction-type>
        </direction>
      <direction placement="below">
        <direction-type>
          <words>C</words>
          </direction-type>
        </direction>
      <note default-x="12.00" default-y="-15.00">
        <pitch>
          <step>C</step>
          <octave>5</octave>
          </pitch>
        <duration>2</duration>
        <voice>1</voice>
        <type>eighth</type>
        <time-modification>
          <actual-notes>3</actual-notes>
          <normal-notes>2</normal-notes>
          </time-modification>
        <stem>down</stem>
        <beam number="1">begin</beam>
        <notations>
          <tuplet type="start" bracket="no"/>
          </notations>
        </note>
      <direction placement="below">
        <direction-type>
          <words>H</words>
          </direction-type>
        </direction>
      <direction placement="below">
        <direction-type>
          <words>H</words>
          </direction-type>
        </direction>
      <note default-x="45.85" default-y="-20.00">
        <pitch>
          <step>B</step>
          <octave>4</octave>
          </pitch>
        <duration>2</duration>
        <voice>1</voice>
        <type>eighth</type>
        <time-modification>
          <actual-notes>3</actual-notes>
          <normal-notes>2</normal-notes>
          </time-modification>
        <stem>down</stem>
        <beam number="1">continue</beam>
        </note>
      <direction placement="below">
        <direction-type>
          <words>A</words>
          </direction-type>
        </direction>
      <direction placement="below">
        <direction-type>
          <words>A</words>
          </direction-type>
        </direction>
      <note default-x="79.70" default-y="-25.00">
        <pitch>
          <step>A</step>
          <octave>4</octave>
          </pitch>
        <duration>2</duration>
        <voice>1</voice>
        <type>eighth</type>
        <time-modification>
          <actual-notes>3</actual-notes>
          <normal-notes>2</normal-notes>
          </time-modification>
        <stem>down</stem>
        <beam number="1">end</beam>
        <notations>
          <tuplet type="stop"/>
          </notations>
        </note>
      <direction placement="below">
        <direction-type>
          <words>G</words>
          </direction-type>
        </direction>
      <direction placement="below">
        <direction-type>
          <words>G</words>
          </direction-type>
        </direction>
      <note default-x="113.19" default-y="5.00">
        <pitch>
          <step>G</step>
          <octave>5</octave>
          </pitch>
        <duration>12</duration>
        <voice>1</voice>
        <type>half</type>
        <stem>down</stem>
        </note>
      <direction placement="below">
        <direction-type>
          <words>D</words>
          </direction-type>
        </direction>
      <direction placement="below">
        <direction-type>
          <words>D</words>
          </direction-type>
        </direction>
      <note default-x="199.90" default-y="-10.00">
        <pitch>
          <step>D</step>
          <octave>5</octave>
          </pitch>
        <duration>6</duration>
        <voice>1</voice>
        <type>quarter</type>
        <stem>down</stem>
        </note>
      </measure>
    <measure number="23" width="267.54">
      <direction placement="below">
        <direction-type>
          <words>C</words>
          </direction-type>
        </direction>
      <direction placement="below">
        <direction-type>
          <words>C</words>
          </direction-type>
        </direction>
      <note default-x="12.00" default-y="-15.00">
        <pitch>
          <step>C</step>
          <octave>5</octave>
          </pitch>
        <duration>2</duration>
        <voice>1</voice>
        <type>eighth</type>
        <time-modification>
          <actual-notes>3</actual-notes>
          <normal-notes>2</normal-notes>
          </time-modification>
        <stem>down</stem>
        <beam number="1">begin</beam>
        <notations>
          <tuplet type="start" bracket="no"/>
          </notations>
        </note>
      <direction placement="below">
        <direction-type>
          <words>H</words>
          </direction-type>
        </direction>
      <direction placement="below">
        <direction-type>
          <words>H</words>
          </direction-type>
        </direction>
      <note default-x="45.85" default-y="-20.00">
        <pitch>
          <step>B</step>
          <octave>4</octave>
          </pitch>
        <duration>2</duration>
        <voice>1</voice>
        <type>eighth</type>
        <time-modification>
          <actual-notes>3</actual-notes>
          <normal-notes>2</normal-notes>
          </time-modification>
        <stem>down</stem>
        <beam number="1">continue</beam>
        </note>
      <direction placement="below">
        <direction-type>
          <words>A</words>
          </direction-type>
        </direction>
      <direction placement="below">
        <direction-type>
          <words>A</words>
          </direction-type>
        </direction>
      <note default-x="79.70" default-y="-25.00">
        <pitch>
          <step>A</step>
          <octave>4</octave>
          </pitch>
        <duration>2</duration>
        <voice>1</voice>
        <type>eighth</type>
        <time-modification>
          <actual-notes>3</actual-notes>
          <normal-notes>2</normal-notes>
          </time-modification>
        <stem>down</stem>
        <beam number="1">end</beam>
        <notations>
          <tuplet type="stop"/>
          </notations>
        </note>
      <direction placement="below">
        <direction-type>
          <words>G</words>
          </direction-type>
        </direction>
      <direction placement="below">
        <direction-type>
          <words>G</words>
          </direction-type>
        </direction>
      <note default-x="113.19" default-y="5.00">
        <pitch>
          <step>G</step>
          <octave>5</octave>
          </pitch>
        <duration>12</duration>
        <voice>1</voice>
        <type>half</type>
        <stem>down</stem>
        </note>
      <direction placement="below">
        <direction-type>
          <words>D</words>
          </direction-type>
        </direction>
      <direction placement="below">
        <direction-type>
          <words>D</words>
          </direction-type>
        </direction>
      <note default-x="199.90" default-y="-10.00">
        <pitch>
          <step>D</step>
          <octave>5</octave>
          </pitch>
        <duration>6</duration>
        <voice>1</voice>
        <type>quarter</type>
        <stem>down</stem>
        </note>
      </measure>
    <measure number="24" width="310.67">
      <print new-system="yes">
        <system-layout>
          <system-margins>
            <left-margin>0.00</left-margin>
            <right-margin>0.00</right-margin>
            </system-margins>
          <system-distance>150.00</system-distance>
          </system-layout>
        </print>
      <direction placement="below">
        <direction-type>
          <words>C</words>
          </direction-type>
        </direction>
      <direction placement="below">
        <direction-type>
          <words>C</words>
          </direction-type>
        </direction>
      <note default-x="49.07" default-y="-15.00">
        <pitch>
          <step>C</step>
          <octave>5</octave>
          </pitch>
        <duration>2</duration>
        <voice>1</voice>
        <type>eighth</type>
        <time-modification>
          <actual-notes>3</actual-notes>
          <normal-notes>2</normal-notes>
          </time-modification>
        <stem>down</stem>
        <beam number="1">begin</beam>
        <notations>
          <tuplet type="start" bracket="no"/>
          </notations>
        </note>
      <direction placement="below">
        <direction-type>
          <words>H</words>
          </direction-type>
        </direction>
      <direction placement="below">
        <direction-type>
          <words>H</words>
          </direction-type>
        </direction>
      <note default-x="83.73" default-y="-20.00">
        <pitch>
          <step>B</step>
          <octave>4</octave>
          </pitch>
        <duration>2</duration>
        <voice>1</voice>
        <type>eighth</type>
        <time-modification>
          <actual-notes>3</actual-notes>
          <normal-notes>2</normal-notes>
          </time-modification>
        <stem>down</stem>
        <beam number="1">continue</beam>
        </note>
      <direction placement="below">
        <direction-type>
          <words>C</words>
          </direction-type>
        </direction>
      <direction placement="below">
        <direction-type>
          <words>C</words>
          </direction-type>
        </direction>
      <note default-x="118.39" default-y="-15.00">
        <pitch>
          <step>C</step>
          <octave>5</octave>
          </pitch>
        <duration>2</duration>
        <voice>1</voice>
        <type>eighth</type>
        <time-modification>
          <actual-notes>3</actual-notes>
          <normal-notes>2</normal-notes>
          </time-modification>
        <stem>down</stem>
        <beam number="1">end</beam>
        <notations>
          <tuplet type="stop"/>
          </notations>
        </note>
      <direction placement="below">
        <direction-type>
          <words>A</words>
          </direction-type>
        </direction>
      <direction placement="below">
        <direction-type>
          <words>A</words>
          </direction-type>
        </direction>
      <note default-x="152.68" default-y="-25.00">
        <pitch>
          <step>A</step>
          <octave>4</octave>
          </pitch>
        <duration>12</duration>
        <voice>1</voice>
        <type>half</type>
        <stem>up</stem>
        </note>
      <direction placement="below">
        <direction-type>
          <words>D</words>
          </direction-type>
        </direction>
      <direction placement="below">
        <direction-type>
          <words>D</words>
          </direction-type>
        </direction>
      <note default-x="241.45" default-y="-10.00">
        <pitch>
          <step>D</step>
          <octave>5</octave>
          </pitch>
        <duration>6</duration>
        <voice>1</voice>
        <type>quarter</type>
        <stem>down</stem>
        </note>
      </measure>
    <measure number="25" width="221.93">
      <direction placement="below">
        <direction-type>
          <words>G</words>
          </direction-type>
        </direction>
      <direction placement="below">
        <direction-type>
          <words>G</words>
          </direction-type>
        </direction>
      <note default-x="12.00" default-y="5.00">
        <pitch>
          <step>G</step>
          <octave>5</octave>
          </pitch>
        <duration>24</duration>
        <tie type="start"/>
        <voice>1</voice>
        <type>whole</type>
        <notations>
          <tied type="start"/>
          </notations>
        </note>
      </measure>
    <measure number="26" width="274.00">
      <direction placement="below">
        <direction-type>
          <words>G</words>
          </direction-type>
        </direction>
      <direction placement="below">
        <direction-type>
          <words>G</words>
          </direction-type>
        </direction>
      <note default-x="12.00" default-y="5.00">
        <pitch>
          <step>G</step>
          <octave>5</octave>
          </pitch>
        <duration>18</duration>
        <tie type="stop"/>
        <voice>1</voice>
        <type>half</type>
        <dot/>
        <stem>down</stem>
        <notations>
          <tied type="stop"/>
          </notations>
        </note>
      <direction placement="below">
        <direction-type>
          <words>G</words>
          </direction-type>
        </direction>
      <direction placement="below">
        <direction-type>
          <words>G</words>
          </direction-type>
        </direction>
      <note default-x="140.22" default-y="5.00">
        <pitch>
          <step>G</step>
          <octave>5</octave>
          </pitch>
        <duration>2</duration>
        <voice>1</voice>
        <type>eighth</type>
        <time-modification>
          <actual-notes>3</actual-notes>
          <normal-notes>2</normal-notes>
          </time-modification>
        <stem>down</stem>
        <beam number="1">begin</beam>
        <notations>
          <tuplet type="start" bracket="no"/>
          </notations>
        </note>
      <direction placement="below">
        <direction-type>
          <words>G</words>
          </direction-type>
        </direction>
      <direction placement="below">
        <direction-type>
          <words>G</words>
          </direction-type>
        </direction>
      <note default-x="184.28" default-y="5.00">
        <pitch>
          <step>G</step>
          <octave>5</octave>
          </pitch>
        <duration>2</duration>
        <voice>1</voice>
        <type>eighth</type>
        <time-modification>
          <actual-notes>3</actual-notes>
          <normal-notes>2</normal-notes>
          </time-modification>
        <stem>down</stem>
        <beam number="1">continue</beam>
        </note>
      <direction placement="below">
        <direction-type>
          <words>G</words>
          </direction-type>
        </direction>
      <direction placement="below">
        <direction-type>
          <words>G</words>
          </direction-type>
        </direction>
      <note default-x="228.34" default-y="5.00">
        <pitch>
          <step>G</step>
          <octave>5</octave>
          </pitch>
        <duration>2</duration>
        <voice>1</voice>
        <type>eighth</type>
        <time-modification>
          <actual-notes>3</actual-notes>
          <normal-notes>2</normal-notes>
          </time-modification>
        <stem>down</stem>
        <beam number="1">end</beam>
        <notations>
          <tuplet type="stop"/>
          </notations>
        </note>
      </measure>
    <measure number="27" width="270.89">
      <direction placement="below">
        <direction-type>
          <words>G</words>
          </direction-type>
        </direction>
      <direction placement="below">
        <direction-type>
          <words>G</words>
          </direction-type>
        </direction>
      <note default-x="12.00" default-y="5.00">
        <pitch>
          <step>G</step>
          <octave>5</octave>
          </pitch>
        <duration>3</duration>
        <voice>1</voice>
        <type>eighth</type>
        <stem>down</stem>
        </note>
      <note>
        <rest/>
        <duration>3</duration>
        <voice>1</voice>
        <type>eighth</type>
        </note>
      <note>
        <rest/>
        <duration>6</duration>
        <voice>1</voice>
        <type>quarter</type>
        </note>
      <note>
        <rest/>
        <duration>12</duration>
        <voice>1</voice>
        <type>half</type>
        </note>
      <barline location="right">
        <bar-style>light-heavy</bar-style>
        </barline>
      </measure>
    </part>
  </score-partwise>
